PathFileType	4	(X/Y/Z)	D:\TRACE\spot_10-12-23\spot_body_baseline_4-platform.trc
DataRate	CameraRate	NumFrames	NumMarkers	Units	OrigDataRate	OrigDataStartFrame	OrigNumFrames
100.00	100.00	      75	5	mm	100.00	2626	      7000
Frame#	Time	Left_Front			Right_Front			Left_Aft			Right_Aft			Post			
		X1	Y1	Z1	X2	Y2	Z2	X3	Y3	Z3	X4	Y4	Z4	X5	Y5	Z5	

2626	26.250	-780.67194	6.37458	-641.49048	791.61310	11.06437	-634.89563	-697.79565	5.57756	496.38251	719.49805	10.10148	582.33276	1.77988	743.90295	-959.48761	
2627	26.260	-780.69537	6.38358	-641.49768	791.59906	11.06696	-634.93237	-697.80481	5.57843	496.37784	719.51251	10.11602	582.32056	1.77540	743.93341	-959.46307	
2628	26.270	-780.69879	6.39255	-641.50427	791.63940	11.04069	-634.90485	-697.82233	5.59320	496.38071	719.50964	10.11951	582.31097	1.83893	743.90680	-959.46368	
2629	26.280	-780.67883	6.36620	-641.49194	791.48102	11.07854	-635.01080	-697.78442	5.64476	496.42023	719.48712	10.15162	582.33691	1.77055	743.92395	-959.45123	
2630	26.290	-780.56519	6.28552	-641.48590	791.65948	11.10136	-634.89142	-697.80945	5.62742	496.40964	719.51917	10.12319	582.32898	1.77588	743.96436	-959.49994	
2631	26.300	-780.64838	6.35459	-641.47021	791.60065	11.08198	-634.90546	-697.77863	5.61867	496.39682	719.48505	10.10673	582.31671	1.77982	743.94550	-959.48206	
2632	26.310	-780.58411	6.30453	-641.48785	791.60846	11.03336	-634.89429	-697.80676	5.60416	496.40555	719.49072	10.07726	582.31134	1.77968	743.92120	-959.49664	
2633	26.320	-780.68402	6.38704	-641.46417	791.64325	11.09453	-634.85925	-697.80780	5.59589	496.42020	719.46436	10.11205	582.33350	1.76133	743.95325	-959.42767	
2634	26.330	-780.73596	6.42664	-641.46777	791.61157	11.08377	-634.89380	-697.78149	5.60014	496.40234	719.48914	10.09708	582.32709	1.81367	743.93402	-959.42969	
2635	26.340	-780.76587	6.44261	-641.44745	791.56665	11.07979	-634.92633	-697.82556	5.61139	496.37622	719.48694	10.09550	582.34314	1.81841	743.92249	-959.43134	
2636	26.350	-780.70807	6.37272	-641.46002	791.65491	11.06674	-634.84320	-697.78552	5.58431	496.37701	719.52423	10.14407	582.33325	1.85188	743.90625	-959.37775	
2637	26.360	-780.67706	6.39364	-641.45007	791.61041	11.06074	-634.91986	-697.81067	5.61347	496.38525	719.50476	10.12738	582.32410	1.83862	743.90869	-959.40118	
2638	26.370	-780.66162	6.37282	-641.50812	791.64691	11.01804	-634.88580	-697.79498	5.59471	496.40976	719.50775	10.12567	582.32477	1.81543	743.92310	-959.40625	
2639	26.380	-780.60651	6.36105	-641.52936	791.65759	11.07967	-634.88104	-697.79254	5.60891	496.38867	719.54163	10.12015	582.32367	1.80019	743.92523	-959.41522	
2640	26.390	-780.63422	6.35064	-641.49109	791.70520	11.05679	-634.87115	-697.81598	5.63939	496.40024	719.50873	10.11789	582.31293	1.76446	743.92993	-959.48883	
2641	26.400	-780.72131	6.41725	-641.48053	791.64520	11.05062	-634.89020	-697.79791	5.59471	496.38879	719.48596	10.11838	582.31470	1.74084	743.97241	-959.49445	
2642	26.410	-780.71539	6.42090	-641.47668	791.62476	11.05768	-634.90552	-697.82373	5.60179	496.39511	719.48944	10.10695	582.32233	1.74499	743.94147	-959.49823	
2643	26.420	-780.73950	6.44362	-641.43353	791.58203	11.06345	-634.90985	-697.82648	5.61087	496.40485	719.45197	10.07985	582.30920	1.75600	743.95319	-959.50439	
2644	26.430	-780.65662	6.40232	-641.50891	791.64008	11.04651	-634.91455	-697.86835	5.60407	496.37732	719.51086	10.12941	582.30597	1.80508	743.94073	-959.48309	
2645	26.440	-780.58405	6.29031	-641.48767	791.63635	11.05771	-634.89545	-697.81641	5.63590	496.41034	719.49847	10.11917	582.30267	1.79063	743.95062	-959.45020	
2646	26.450	-780.61749	6.33375	-641.50671	791.66943	11.05273	-634.87445	-697.80719	5.61275	496.39465	719.46912	10.10276	582.29510	1.81202	743.91199	-959.41022	
2647	26.460	-780.68646	6.37599	-641.47949	791.62799	11.06021	-634.93762	-697.78595	5.63437	496.36505	719.49817	10.11791	582.29358	1.76458	743.93115	-959.42883	
2648	26.470	-780.65649	6.34979	-641.46924	791.62292	11.03109	-634.92041	-697.80939	5.58787	496.38687	719.48743	10.10293	582.31409	1.78359	743.93304	-959.41638	
2649	26.480	-780.67535	6.39230	-641.48560	791.64154	11.02385	-634.92334	-697.80579	5.61431	496.40506	719.49792	10.10172	582.30902	1.79506	743.93793	-959.40454	
2650	26.490	-780.66931	6.40222	-641.46661	791.61005	11.01732	-634.89166	-697.83191	5.61210	496.38266	719.48132	10.11268	582.30823	1.82278	743.93066	-959.43585	
2651	26.500	-780.68115	6.40851	-641.51031	791.63806	11.06120	-634.88776	-697.78973	5.61825	496.40097	719.45673	10.08071	582.27863	1.80926	743.93463	-959.40515	
2652	26.510	-780.62805	6.33462	-641.50555	791.64996	11.08593	-634.86298	-697.81342	5.56837	496.40631	719.47296	10.11278	582.30286	1.79085	743.97357	-959.42816	
2653	26.520	-780.67889	6.38692	-641.47394	791.64514	11.06177	-634.85077	-697.78168	5.59409	496.39700	719.49982	10.11102	582.29742	1.82760	743.95154	-959.43622	
2654	26.530	-780.72443	6.39735	-641.47284	791.62683	11.06402	-634.89130	-697.77008	5.56721	496.38608	719.48035	10.09586	582.30939	1.80679	743.93457	-959.41705	
2655	26.540	-780.66150	6.35865	-641.49762	791.64606	11.07134	-634.91577	-697.79395	5.60673	496.38907	719.45911	10.09008	582.29913	1.82926	743.90399	-959.43329	
2656	26.550	-780.66876	6.39646	-641.50409	791.70282	11.08059	-634.87378	-697.79291	5.62708	496.37405	719.45941	10.11387	582.31329	1.80850	743.92358	-959.40283	
2657	26.560	-780.69843	6.39742	-641.45050	791.66779	11.03861	-634.89050	-697.73688	5.59149	496.35486	719.46777	10.10058	582.29797	1.76862	743.92828	-959.43042	
2658	26.570	-780.58453	6.27832	-641.49622	791.58807	11.05150	-634.91992	-697.69104	5.46074	496.46463	719.49890	10.10145	582.29999	1.80310	743.90326	-959.43970	
2659	26.580	-780.54132	6.26649	-641.53424	791.61237	11.03637	-634.90350	-697.89105	5.62106	496.40451	719.44714	10.09798	582.30255	1.75659	743.91541	-959.48444	
2660	26.590	-780.70520	6.43984	-641.51648	791.66809	11.04089	-634.85217	-697.90399	5.62878	496.35916	719.45538	10.08853	582.30676	1.72791	743.93677	-959.50909	
2661	26.600	-780.69684	6.41599	-641.47949	791.67181	11.08916	-634.83496	-697.83795	5.61987	496.40234	719.47510	10.08408	582.31500	1.79429	743.94153	-959.53119	
2662	26.610	-780.62946	6.39646	-641.49890	791.66498	11.07300	-634.86493	-697.85431	5.63740	496.37045	719.48352	10.11545	582.29242	1.80754	743.92914	-959.44928	
2663	26.620	-780.72382	6.44772	-641.44598	791.67810	11.08570	-634.89435	-697.93781	5.66897	496.39423	719.48907	10.11199	582.30664	1.78372	743.95648	-959.42603	
2664	26.630	-780.58252	6.29654	-641.52008	791.60760	11.03040	-634.90686	-697.81525	5.60314	496.38071	719.49402	10.10427	582.29382	1.81040	743.91315	-959.45508	
2665	26.640	-780.67731	6.38232	-641.49420	791.63715	11.04317	-634.85376	-697.88330	5.58514	496.38205	719.45081	10.09442	582.30090	1.79174	743.90778	-959.39349	
2666	26.650	-780.64923	6.38503	-641.51355	791.59705	11.04120	-634.91150	-697.91345	5.64187	496.36401	719.47980	10.10293	582.28461	1.80309	743.93341	-959.38007	
2667	26.660	-780.63849	6.39599	-641.47998	791.63782	11.03510	-634.87506	-697.83392	5.60182	496.38416	719.46509	10.09336	582.28937	1.82059	743.93115	-959.41058	
2668	26.670	-780.64496	6.38337	-641.49420	791.57343	11.05678	-634.92224	-697.79456	5.59765	496.41064	719.50171	10.10450	582.29486	1.79167	743.93823	-959.47131	
2669	26.680	-780.67151	6.42711	-641.48206	791.62842	11.07176	-634.87335	-697.80060	5.59534	496.36871	719.46283	10.12631	582.31104	1.83033	743.93048	-959.39465	
2670	26.690	-780.62439	6.33657	-641.46942	791.59741	11.08262	-634.88062	-697.81812	5.58095	496.37997	719.46533	10.11119	582.31415	1.78673	743.93536	-959.46057	
2671	26.700	-780.75665	6.46173	-641.43585	791.57214	11.07977	-634.88837	-697.81213	5.59838	496.37766	719.44965	10.11518	582.30072	1.74314	743.92975	-959.50433	
2672	26.710	-780.59125	6.38451	-641.50665	791.62335	11.09128	-634.87067	-697.81403	5.63197	496.36343	719.48651	10.09116	582.32947	1.74406	743.94745	-959.45404	
2673	26.720	-780.69293	6.42558	-641.44489	791.60687	11.08531	-634.91315	-697.82831	5.61125	496.39023	719.47833	10.10632	582.30286	1.73618	743.94647	-959.45068	
2674	26.730	-780.71429	6.42836	-641.48633	791.59277	11.06621	-634.89429	-697.84686	5.61417	496.36664	719.47589	10.10946	582.31696	1.74582	743.92139	-959.46381	
2675	26.740	-780.70911	6.41706	-641.47333	791.44336	11.06534	-635.02655	-697.79675	5.60888	496.37241	719.46259	10.10320	582.32397	1.74547	743.93585	-959.45526	
2676	26.750	-780.64752	6.36931	-641.48718	791.59790	11.06408	-634.89478	-697.81421	5.63319	496.37857	719.46686	10.11852	582.32080	1.82185	743.90070	-959.38788	
2677	26.760	-780.66156	6.39997	-641.51801	791.63623	11.01155	-634.91199	-697.82336	5.65443	496.38531	719.47528	10.09104	582.29645	1.76521	743.93512	-959.43970	
2678	26.770	-780.56561	6.28122	-641.52106	791.59900	11.07634	-634.90137	-697.84686	5.63469	496.40549	719.49664	10.09956	582.29852	1.72679	743.96948	-959.48450	
2679	26.780	-780.65393	6.39693	-641.50934	791.43530	11.07972	-635.04340	-697.83185	5.63596	496.35269	719.48035	10.09621	582.29742	1.78401	743.96606	-959.44171	
2680	26.790	-780.56567	6.30244	-641.49323	791.53961	11.07512	-634.93030	-697.84222	5.63852	496.37100	719.45251	10.07688	582.29346	1.76465	743.97021	-959.46991	
2681	26.800	-780.72528	6.42599	-641.44104	791.57135	11.02924	-634.93677	-697.85510	5.62008	496.37064	719.47882	10.09617	582.29834	1.79900	743.98022	-959.45898	
2682	26.810	-780.64142	6.38241	-641.47894	791.63757	11.04492	-634.88721	-697.82513	5.63990	496.37213	719.47601	10.13687	582.32043	1.82334	743.96124	-959.45728	
2683	26.820	-780.64545	6.37253	-641.52466	791.56183	11.08119	-634.90112	-697.81439	5.62638	496.38708	719.47247	10.11995	582.32428	2.13182	743.94061	-959.41211	
2684	26.830	-780.65759	6.37647	-641.44916	791.59314	11.04648	-634.91827	-697.77856	5.59239	496.41174	719.49481	10.13045	582.30762	1.76591	743.90631	-959.44244	
2685	26.840	-780.68378	6.39434	-641.49634	791.60620	11.03494	-634.91473	-697.80707	5.58817	496.38715	719.47461	10.08552	582.29138	1.73844	743.89941	-959.44623	
2686	26.850	-780.60693	6.32323	-641.50037	791.58032	11.06047	-634.89447	-697.77594	5.62551	496.40570	719.48010	10.12547	582.30963	1.78578	743.90869	-959.43982	
2687	26.860	-780.62042	6.32040	-641.49835	791.64264	11.04150	-634.87341	-697.84784	5.63065	496.38739	719.46588	10.09612	582.30426	1.72328	743.89923	-959.47095	
2688	26.870	-780.65662	6.36873	-641.49457	791.64301	11.04576	-634.86212	-697.81146	5.61342	496.39075	719.45813	10.09521	582.29279	1.74104	743.91083	-959.47247	
2689	26.880	-780.65424	6.37898	-641.46246	791.60724	11.09568	-634.88336	-697.81940	5.62450	496.38486	719.46741	10.12101	582.32446	1.60535	743.98547	-959.45142	
2690	26.890	-780.59418	6.28202	-641.50061	791.63098	11.03365	-634.88959	-697.80060	5.61957	496.41016	719.45819	10.10035	582.30011	1.77629	743.98663	-959.47235	
2691	26.900	-780.59015	6.28637	-641.47748	791.57489	11.06827	-634.90314	-697.80420	5.63169	496.40054	719.43658	10.07694	582.31177	1.79676	744.00250	-959.45557	
2692	26.910	-780.57855	6.27428	-641.48029	791.60504	11.06723	-634.90613	-697.79462	5.59598	496.39798	719.45264	10.08105	582.29480	1.72150	743.99713	-959.43695	
2693	26.920	-780.53510	6.27188	-641.49146	791.62830	11.04226	-634.89587	-697.83844	5.64379	496.38354	719.45276	10.09471	582.29742	1.71668	743.98499	-959.47107	
2694	26.930	-780.58429	6.30362	-641.50562	791.61560	11.04856	-634.90631	-697.85010	5.61536	496.38071	719.47906	10.09661	582.29333	1.73999	743.96490	-959.43951	
2695	26.940	-780.54260	6.25827	-641.51538	791.64880	11.08939	-634.86945	-697.81952	5.63091	496.37027	719.45776	10.09217	582.29028	1.74057	743.93250	-959.43213	
2696	26.950	-780.62872	6.35141	-641.48187	791.63403	11.09453	-634.88971	-697.79950	5.62268	496.40131	719.45459	10.12585	582.32062	1.75858	743.92670	-959.42749	
2697	26.960	-780.62524	6.30917	-641.48248	791.59839	11.06521	-634.88806	-697.80884	5.62801	496.40149	719.48511	10.11866	582.31177	1.82145	743.95636	-959.37939	
2698	26.970	-780.56451	6.29182	-641.48022	791.61316	11.06088	-634.87067	-697.83807	5.59361	496.35809	719.51312	10.13194	582.28955	1.78012	743.94714	-959.45770	
2699	26.980	-780.57843	6.30639	-641.52466	791.66602	11.02315	-634.83734	-697.79327	5.61094	496.38403	719.48175	10.11047	582.28796	1.76635	743.94733	-959.41687	
2700	26.990	-780.64374	6.32810	-641.48724	791.65259	11.04645	-634.87097	-697.83777	5.59416	496.36969	719.48157	10.07494	582.29486	1.75535	743.93311	-959.46271	
